#N canvas 569 102 509 595 10;
#X obj 46 21 adc~;
#X obj 56 146 osc~ 2;
#X obj 56 177 +~ 1;
#X obj 56 205 *~ 0.5;
#X obj 56 244 *~ 1500;
#X obj 56 338 +~ 200;
#X obj 46 504 vcf~;
#X obj 46 550 dac~;
#X obj 149 187 bang;
#X obj 149 214 -;
#X floatatom 149 245 5 0 0 0 - - -;
#X floatatom 108 339 5 0 0 0 - - -;
#X obj 303 284 loadbang;
#X msg 303 321 5.3;
#X floatatom 134 513 5 0 0 0 - - -;
#X obj 134 369 vsl 15 128 0 20 0 0 empty empty empty 0 -9 0 10 -262144
-1 -1 3366 1;
#X obj 204 176 hsl 128 15 700 6000 0 0 empty empty empty -2 -8 0 10
-262144 -1 -1 0 1;
#X obj 92 309 hsl 128 15 0 700 0 0 empty empty empty -2 -8 0 10 -262144
-1 -1 0 1;
#X obj 59 85 hsl 128 15 0.5 4 0 0 empty empty empty -2 -8 0 10 -262144
-1 -1 0 1;
#X text 108 146 LFO;
#X text 216 150 Maximum of frequency range;
#X text 120 289 Minimum of frequency range;
#X text 115 378 Q;
#X obj 56 51 r lfo_wahwah;
#X floatatom 67 114 5 0 0 0 - - -;
#X obj 201 118 r max_wahwah;
#X obj 89 271 r min_wahwah;
#X obj 155 333 r Q_wahwah;
#X msg 468 100 \; pd dsp \$1;
#X obj 468 64 tgl 15 0 empty empty empty 17 7 0 10 -262144 -1 -1 1
1;
#X obj 468 26 r on_off_wahwah;
#X obj 392 25 loadbang;
#X obj 392 53 1;
#X connect 0 0 6 0;
#X connect 1 0 2 0;
#X connect 2 0 3 0;
#X connect 3 0 4 0;
#X connect 4 0 5 0;
#X connect 5 0 6 1;
#X connect 6 0 7 0;
#X connect 6 0 7 1;
#X connect 8 0 9 0;
#X connect 9 0 10 0;
#X connect 9 0 4 1;
#X connect 12 0 13 0;
#X connect 13 0 15 0;
#X connect 15 0 6 2;
#X connect 15 0 14 0;
#X connect 16 0 9 0;
#X connect 17 0 11 0;
#X connect 17 0 5 1;
#X connect 17 0 8 0;
#X connect 17 0 9 1;
#X connect 18 0 1 0;
#X connect 18 0 24 0;
#X connect 23 0 18 0;
#X connect 25 0 16 0;
#X connect 26 0 17 0;
#X connect 27 0 15 0;
#X connect 29 0 28 0;
#X connect 30 0 29 0;
#X connect 31 0 32 0;
#X connect 32 0 29 0;
